<?xml version="1.0" encoding="UTF-8"?>
<svg xmlns="http://www.w3.org/2000/svg" xmlns:xlink="http://www.w3.org/1999/xlink" width="256px" height="256px" viewBox="0 0 256 256" version="1.1">
<g id="surface1">
<path style=" stroke:none;fill-rule:nonzero;fill:rgb(97.647059%,97.647059%,97.647059%);fill-opacity:1;" d="M 210.484375 76.5 C 202.753906 72.976562 194.171875 70.089844 185.40625 67.90625 C 186.769531 63.054688 187.949219 58.34375 188.917969 53.859375 C 193.480469 29.699219 190.679688 10.5625 180.3125 4.078125 C 170.457031 -2.042969 153.988281 2.519531 136.984375 16.136719 C 130.445312 21.5 123.976562 27.863281 117.71875 35.046875 C 111.457031 27.863281 104.988281 21.5 98.449219 16.140625 C 81.445312 2.519531 64.976562 -2.042969 55.121094 4.078125 C 44.753906 10.5625 41.953125 29.699219 46.515625 53.859375 C 47.484375 58.34375 48.664062 63.054688 50.027344 67.90625 C 41.261719 70.089844 32.679688 72.976562 24.949219 76.5 C 3.464844 86.273438 -6.390625 100.644531 3.429688 114.046875 C 12.753906 126.761719 35.792969 132.347656 62.410156 129.980469 C 67.21875 129.4375 72.203125 128.621094 77.28125 127.554688 C 80.351562 136.355469 83.984375 144.628906 88.089844 152.203125 C 83.984375 159.777344 80.351562 168.050781 77.28125 176.851562 C 72.203125 175.785156 67.21875 174.96875 62.410156 174.425781 C 35.792969 172.058594 12.753906 177.644531 3.429688 190.359375 C -6.390625 203.761719 3.464844 218.132812 24.949219 227.90625 C 32.679688 231.429688 41.261719 234.316406 50.027344 236.5 C 48.664062 241.351562 47.484375 246.0625 46.515625 250.546875 C 41.953125 274.707031 44.753906 293.84375 55.121094 300.328125 C 65.476562 307.09375 82.441406 302.527344 99.949219 288.429688 C 106.488281 283.066406 112.957031 276.703125 119.21875 269.519531 C 125.476562 276.703125 131.945312 283.066406 138.484375 288.425781 C 155.988281 302.046875 172.457031 306.609375 182.3125 300.488281 C 192.679688 294.003906 195.480469 274.867188 190.917969 250.707031 C 189.949219 246.222656 188.769531 241.511719 187.40625 236.660156 C 196.171875 234.476562 204.753906 231.589844 212.484375 228.066406 C 233.96875 218.292969 243.824219 203.921875 234.003906 190.519531 C 224.679688 177.804688 201.640625 172.21875 175.023438 174.585938 C 170.214844 175.128906 165.230469 175.945312 160.152344 177.011719 C 157.082031 168.210938 153.449219 159.9375 149.34375 152.363281 C 153.449219 144.789062 157.082031 136.515625 160.152344 127.714844 C 165.230469 128.78125 170.214844 129.597656 175.023438 130.140625 C 201.640625 132.507812 224.679688 126.921875 234.003906 114.207031 C 243.824219 100.804688 233.96875 86.433594 212.484375 76.660156 Z M 128 152.214844 C 114.121094 152.214844 102.855469 140.949219 102.855469 127.070312 C 102.855469 113.191406 114.121094 101.925781 128 101.925781 C 141.878906 101.925781 153.144531 113.191406 153.144531 127.070312 C 153.144531 140.949219 141.878906 152.214844 128 152.214844 Z M 128 152.214844 "/>
</g>
</svg>
