<?xml version="1.0" encoding="UTF-8"?>
<svg xmlns="http://www.w3.org/2000/svg" xmlns:xlink="http://www.w3.org/1999/xlink" width="32px" height="32px" viewBox="0 0 32 32" version="1.1">
<g id="surface1">
<path style=" stroke:none;fill-rule:nonzero;fill:rgb(39.215686%,42.352941%,100%);fill-opacity:1;" d="M 16 2 C 8.269531 2 2 8.269531 2 16 C 2 23.730469 8.269531 30 16 30 C 23.730469 30 30 23.730469 30 16 C 30 8.269531 23.730469 2 16 2 Z M 16 4 C 22.617188 4 28 9.382812 28 16 C 28 22.617188 22.617188 28 16 28 C 9.382812 28 4 22.617188 4 16 C 4 9.382812 9.382812 4 16 4 Z M 16 8 C 11.582031 8 8 11.582031 8 16 C 8 20.417969 11.582031 24 16 24 C 20.417969 24 24 20.417969 24 16 C 24 11.582031 20.417969 8 16 8 Z M 16 10 C 19.308594 10 22 12.691406 22 16 C 22 19.308594 19.308594 22 16 22 C 12.691406 22 10 19.308594 10 16 C 10 12.691406 12.691406 10 16 10 Z M 16 12 C 13.800781 12 12 13.800781 12 16 C 12 18.199219 13.800781 20 16 20 C 18.199219 20 20 18.199219 20 16 C 20 13.800781 18.199219 12 16 12 Z M 16 12 "/>
</g>
</svg>
